<svg width="121" height="120" viewBox="0 0 121 120" fill="none" xmlns="http://www.w3.org/2000/svg">
<path d="M2.30074 3.22994L3.16711 2.19298C5.7662 -0.406107 9.80072 -0.694897 12.7188 1.32662L13.7558 2.19298L60.8726 49.3114L107.989 2.19298C110.913 -0.730993 115.654 -0.730993 118.578 2.19298C121.502 5.11696 121.502 9.85766 118.578 12.7816L71.4597 59.8985L118.578 107.015C121.177 109.614 121.466 113.649 119.444 116.567L118.578 117.604C115.979 120.203 111.944 120.492 109.026 118.47L107.989 117.604L60.8726 70.4855L13.7558 117.604C10.8318 120.528 6.09108 120.528 3.16711 117.604C0.243128 114.68 0.243128 109.939 3.16711 107.015L50.2856 59.8985L3.16711 12.7816C0.568015 10.1825 0.279224 6.14802 2.30074 3.22994Z" fill="#212121"/>
</svg>
