<svg width="26" height="26" viewBox="0 0 26 26" fill="none" xmlns="http://www.w3.org/2000/svg">
<path d="M12.2499 21.6665C12.2499 22.0807 12.5857 22.4165 12.9999 22.4165C13.4141 22.4165 13.7499 22.0807 13.7499 21.6665L12.2499 21.6665ZM13.7499 4.33317C13.7499 3.91896 13.4141 3.58317 12.9999 3.58317C12.5857 3.58317 12.2499 3.91896 12.2499 4.33317H13.7499ZM7.05056 8.13855C6.75898 8.43274 6.7611 8.90761 7.05529 9.1992C7.34949 9.49078 7.82436 9.48866 8.11594 9.19446L7.05056 8.13855ZM9.47617 6.75662L10.0089 7.28458L9.47617 6.75662ZM16.5237 6.75662L17.0564 6.22866L16.5237 6.75662ZM17.8839 9.19446C18.1755 9.48866 18.6503 9.49078 18.9445 9.1992C19.2387 8.90761 19.2409 8.43274 18.9493 8.13855L17.8839 9.19446ZM12.6605 4.35472L12.5656 3.61074H12.5656L12.6605 4.35472ZM13.3394 4.35472L13.4342 3.61074H13.4342L13.3394 4.35472ZM13.7499 21.6665L13.7499 4.33317H12.2499L12.2499 21.6665L13.7499 21.6665ZM8.11594 9.19446L10.0089 7.28458L8.94348 6.22866L7.05056 8.13855L8.11594 9.19446ZM15.991 7.28458L17.8839 9.19446L18.9493 8.13855L17.0564 6.22866L15.991 7.28458ZM10.0089 7.28458C10.7761 6.51051 11.3076 5.97577 11.759 5.61325C12.1986 5.26023 12.4888 5.13266 12.7553 5.0987L12.5656 3.61074C11.9121 3.69403 11.365 4.00587 10.8198 4.44371C10.2864 4.87206 9.68585 5.47964 8.94348 6.22866L10.0089 7.28458ZM17.0564 6.22866C16.314 5.47964 15.7134 4.87206 15.18 4.44371C14.6348 4.00587 14.0877 3.69403 13.4342 3.61074L13.2445 5.0987C13.511 5.13266 13.8012 5.26023 14.2408 5.61325C14.6922 5.97577 15.2238 6.51051 15.991 7.28458L17.0564 6.22866ZM12.7553 5.0987C12.9177 5.078 13.0821 5.078 13.2445 5.0987L13.4342 3.61074C13.1458 3.57398 12.854 3.57398 12.5656 3.61074L12.7553 5.0987Z" fill="#402E32"/>
</svg>
