<svg width="70" height="60" viewBox="0 0 70 60" fill="none" xmlns="http://www.w3.org/2000/svg">
<path d="M32.8393 5.5066C25.5262 -1.80648 13.695 -1.84202 6.41356 5.43944C-0.867898 12.7209 -0.83236 24.5521 6.48072 31.8652L33.552 58.9364C34.6749 60.0593 36.4954 60.0593 37.6183 58.9364L64.5489 32.0217C71.8134 24.7166 71.7904 12.9185 64.4761 5.60418C57.1499 -1.72201 45.3132 -1.75756 38.0187 5.53692L35.4466 8.11394L32.8393 5.5066ZM60.4712 27.9667L35.5851 52.8369L10.5471 27.7988C5.4743 22.7261 5.4497 14.536 10.4799 9.50578C15.5101 4.47558 23.7002 4.50018 28.7729 9.57294L33.4273 14.2273C34.5693 15.3693 36.4278 15.347 37.542 14.1777L42.085 9.60326C47.1282 4.56004 55.3239 4.58465 60.4097 9.67052C65.4838 14.7445 65.4997 22.9102 60.4712 27.9667Z" fill="#212121"/>
</svg>
