<svg width="18" height="23" viewBox="0 0 18 23" fill="none" xmlns="http://www.w3.org/2000/svg">
<path d="M14.3 11.8086C16.1225 11.8086 17.6 13.31 17.6 15.162C17.6 17.6571 16.5903 19.6561 14.9333 21.0076C13.3025 22.3378 11.1168 22.9865 8.8 22.9865C6.48322 22.9865 4.29752 22.3378 2.66673 21.0076C1.00973 19.6561 0 17.6571 0 15.162C0 13.419 1.30873 11.9865 2.98215 11.824L3.29996 11.8086H14.3ZM14.3 14.0442H3.29996C2.69251 14.0442 2.2 14.5447 2.2 15.162C2.2 16.9883 2.91397 18.3426 4.04382 19.2642C5.19988 20.2071 6.86418 20.7509 8.8 20.7509C10.7358 20.7509 12.4001 20.2071 13.5562 19.2642C14.686 18.3426 15.4 16.9883 15.4 15.162C15.4 14.6133 15.0109 14.1569 14.4977 14.0622L14.3 14.0442ZM8.8 0.630737C11.2301 0.630737 13.2 2.63254 13.2 5.10189C13.2 7.57125 11.2301 9.57305 8.8 9.57305C6.36995 9.57305 4.4 7.57125 4.4 5.10189C4.4 2.63254 6.36995 0.630737 8.8 0.630737ZM8.8 2.86632C7.58498 2.86632 6.6 3.86723 6.6 5.10189C6.6 6.33656 7.58498 7.33747 8.8 7.33747C10.015 7.33747 11 6.33656 11 5.10189C11 3.86723 10.015 2.86632 8.8 2.86632Z" fill="#402E32"/>
</svg>
