<svg width="50" height="51" viewBox="0 0 50 51" fill="none" xmlns="http://www.w3.org/2000/svg">
<g clip-path="url(#clip0_33_197)">
<path d="M24.9998 8.63077L18.3331 15.4053L21.6665 18.7925L28.3332 12.018C31.0832 9.22353 35.5832 9.22353 38.3332 12.018C41.0832 14.8125 41.0832 19.3853 38.3332 22.1798L31.6665 28.9543L34.9999 32.3415L41.6665 25.567C46.2666 20.8926 46.2666 13.3052 41.6665 8.63077C37.0665 3.95636 29.5998 3.95636 24.9998 8.63077ZM28.3332 32.3415L21.6665 39.116C18.9165 41.9105 14.4165 41.9105 11.6665 39.116C8.91645 36.3216 8.91645 31.7488 11.6665 28.9543L18.3331 22.1798L14.9998 18.7925L8.33311 25.567C3.7331 30.2414 3.7331 37.8289 8.33311 42.5033C12.9331 47.1777 20.3998 47.1777 24.9998 42.5033L31.6665 35.7288L28.3332 32.3415ZM16.6665 30.6479L29.9998 17.0989L33.3332 20.4861L19.9998 34.0352L16.6665 30.6479Z" fill="black"/>
</g>
<defs>
<clipPath id="clip0_33_197">
<rect width="50" height="50.8086" fill="white" transform="translate(0 0.162598)"/>
</clipPath>
</defs>
</svg>
