<svg width="22" height="22" viewBox="0 0 22 22" fill="none" xmlns="http://www.w3.org/2000/svg">
<path d="M1.4751 0.646851C0.991853 0.646851 0.600098 1.04494 0.600098 1.536C0.600098 2.02706 0.991853 2.42515 1.4751 2.42515H1.90507C2.29574 2.42515 2.63908 2.68832 2.7464 3.07004L5.52113 12.9386C5.8431 14.0838 6.87311 14.8733 8.04512 14.8733H16.0403C17.1136 14.8733 18.0789 14.2092 18.4776 13.1965L21.0576 6.6422C21.5173 5.4741 20.6707 4.20345 19.4327 4.20345H4.88511L4.42906 2.5815C4.1071 1.43636 3.07708 0.646851 1.90507 0.646851H1.4751ZM7.20379 12.4501L5.38511 5.98176H19.4327L16.8527 12.536C16.7199 12.8736 16.398 13.095 16.0403 13.095H8.04512C7.65445 13.095 7.31112 12.8318 7.20379 12.4501Z" fill="#402E32"/>
<path d="M8.4751 21.9829C9.92485 21.9829 11.1001 20.7894 11.1001 19.3172C11.1001 17.8451 9.92485 16.6516 8.4751 16.6516C7.02535 16.6516 5.8501 17.8451 5.8501 19.3172C5.8501 20.7894 7.02535 21.9829 8.4751 21.9829ZM8.4751 20.2058C7.99185 20.2058 7.6001 19.8079 7.6001 19.3172C7.6001 18.8266 7.99185 18.4287 8.4751 18.4287C8.95834 18.4287 9.3501 18.8266 9.3501 19.3172C9.3501 19.8079 8.95834 20.2058 8.4751 20.2058Z" fill="#402E32"/>
<path d="M15.4751 21.9829C16.9248 21.9829 18.1001 20.7894 18.1001 19.3172C18.1001 17.8451 16.9248 16.6516 15.4751 16.6516C14.0253 16.6516 12.8501 17.8451 12.8501 19.3172C12.8501 20.7894 14.0253 21.9829 15.4751 21.9829ZM15.4751 20.2058C14.9919 20.2058 14.6001 19.8079 14.6001 19.3172C14.6001 18.8266 14.9919 18.4287 15.4751 18.4287C15.9583 18.4287 16.3501 18.8266 16.3501 19.3172C16.3501 19.8079 15.9583 20.2058 15.4751 20.2058Z" fill="#402E32"/>
</svg>
