<svg width="26" height="26" viewBox="0 0 26 26" fill="none" xmlns="http://www.w3.org/2000/svg">
<path d="M21.6667 13.75C22.0809 13.75 22.4167 13.4143 22.4167 13C22.4167 12.5858 22.0809 12.25 21.6667 12.25V13.75ZM4.33337 12.25C3.91916 12.25 3.58337 12.5858 3.58337 13C3.58337 13.4143 3.91916 13.75 4.33337 13.75V12.25ZM8.13875 18.9494C8.43295 19.241 8.90781 19.2389 9.1994 18.9447C9.49098 18.6505 9.48886 18.1756 9.19467 17.884L8.13875 18.9494ZM6.75682 16.5238L7.28478 15.9911L6.75682 16.5238ZM6.75682 9.47629L6.22887 8.9436H6.22887L6.75682 9.47629ZM9.19467 8.11606C9.48886 7.82448 9.49098 7.34961 9.1994 7.05542C8.90782 6.76122 8.43295 6.7591 8.13875 7.05068L9.19467 8.11606ZM4.35492 13.3395L3.61094 13.4343L3.61094 13.4343L4.35492 13.3395ZM4.35492 12.6606L3.61094 12.5658L3.61094 12.5658L4.35492 12.6606ZM21.6667 12.25H4.33337V13.75H21.6667V12.25ZM9.19467 17.884L7.28478 15.9911L6.22887 17.0565L8.13875 18.9494L9.19467 17.884ZM7.28478 10.009L9.19467 8.11606L8.13875 7.05068L6.22887 8.9436L7.28478 10.009ZM7.28478 15.9911C6.51071 15.2239 5.97597 14.6923 5.61345 14.2409C5.26044 13.8013 5.13287 13.5111 5.0989 13.2447L3.61094 13.4343C3.69424 14.0878 4.00607 14.635 4.44392 15.1802C4.87226 15.7135 5.47984 16.3141 6.22887 17.0565L7.28478 15.9911ZM6.22887 8.9436C5.47984 9.68597 4.87226 10.2866 4.44392 10.8199C4.00607 11.3651 3.69424 11.9123 3.61094 12.5658L5.0989 12.7554C5.13287 12.489 5.26044 12.1987 5.61345 11.7592C5.97597 11.3078 6.51071 10.7762 7.28478 10.009L6.22887 8.9436ZM5.0989 13.2447C5.0782 13.0822 5.0782 12.9179 5.0989 12.7554L3.61094 12.5658C3.57419 12.8541 3.57419 13.1459 3.61094 13.4343L5.0989 13.2447Z" fill="#402E32"/>
</svg>
