<svg width="21" height="20" viewBox="0 0 21 20" fill="none" xmlns="http://www.w3.org/2000/svg">
<path d="M0 0.984375C0 0.440724 0.440724 0 0.984375 0H20.0156C20.5593 0 21 0.440724 21 0.984375C21 1.52803 20.5593 1.96875 20.0156 1.96875H0.984375C0.440724 1.96875 0 1.52803 0 0.984375Z" fill="#402E32"/>
<path d="M0 9.95312C0 9.40947 0.440724 8.96875 0.984375 8.96875H20.0156C20.5593 8.96875 21 9.40947 21 9.95312C21 10.4968 20.5593 10.9375 20.0156 10.9375H0.984375C0.440724 10.9375 0 10.4968 0 9.95312Z" fill="#402E32"/>
<path d="M0.984375 17.9375C0.440724 17.9375 0 18.3782 0 18.9219C0 19.4655 0.440724 19.9062 0.984375 19.9062H20.0156C20.5593 19.9062 21 19.4655 21 18.9219C21 18.3782 20.5593 17.9375 20.0156 17.9375H0.984375Z" fill="#402E32"/>
</svg>
