<svg width="26" height="26" viewBox="0 0 26 26" fill="none" xmlns="http://www.w3.org/2000/svg">
<path d="M4.33325 12.25C3.91904 12.25 3.58325 12.5858 3.58325 13C3.58325 13.4143 3.91904 13.75 4.33325 13.75L4.33325 12.25ZM21.6666 13.75C22.0808 13.75 22.4166 13.4143 22.4166 13C22.4166 12.5858 22.0808 12.25 21.6666 12.25V13.75ZM17.8612 7.05068C17.567 6.7591 17.0921 6.76122 16.8006 7.05542C16.509 7.34961 16.5111 7.82448 16.8053 8.11606L17.8612 7.05068ZM19.2431 9.47629L18.7152 10.009L19.2431 9.47629ZM19.2431 16.5238L19.7711 17.0565L19.2431 16.5238ZM16.8053 17.884C16.5111 18.1756 16.509 18.6505 16.8006 18.9447C17.0921 19.2389 17.567 19.241 17.8612 18.9494L16.8053 17.884ZM21.645 12.6606L22.389 12.5658V12.5658L21.645 12.6606ZM21.645 13.3395L22.389 13.4343V13.4343L21.645 13.3395ZM4.33325 13.75L21.6666 13.75V12.25L4.33325 12.25L4.33325 13.75ZM16.8053 8.11606L18.7152 10.009L19.7711 8.9436L17.8612 7.05068L16.8053 8.11606ZM18.7152 15.9911L16.8053 17.884L17.8612 18.9494L19.7711 17.0565L18.7152 15.9911ZM18.7152 10.009C19.4893 10.7762 20.024 11.3078 20.3865 11.7592C20.7395 12.1987 20.8671 12.489 20.9011 12.7554L22.389 12.5658C22.3057 11.9123 21.9939 11.3651 21.556 10.8199C21.1277 10.2866 20.5201 9.68597 19.7711 8.9436L18.7152 10.009ZM19.7711 17.0565C20.5201 16.3141 21.1277 15.7135 21.556 15.1802C21.9939 14.635 22.3057 14.0878 22.389 13.4343L20.9011 13.2447C20.8671 13.5111 20.7395 13.8013 20.3865 14.2409C20.024 14.6923 19.4893 15.2239 18.7152 15.9911L19.7711 17.0565ZM20.9011 12.7554C20.9218 12.9179 20.9218 13.0822 20.9011 13.2447L22.389 13.4343C22.4258 13.1459 22.4258 12.8541 22.389 12.5658L20.9011 12.7554Z" fill="#402E32"/>
</svg>
