<svg width="22" height="22" viewBox="0 0 22 22" fill="none" xmlns="http://www.w3.org/2000/svg">
<path fill-rule="evenodd" clip-rule="evenodd" d="M10.0833 0.229126C5.14721 0.229126 1.14575 4.23058 1.14575 9.16663C1.14575 14.1027 5.14721 18.1041 10.0833 18.1041C15.0193 18.1041 19.0208 14.1027 19.0208 9.16663C19.0208 4.23058 15.0193 0.229126 10.0833 0.229126ZM2.52075 9.16663C2.52075 4.98997 5.9066 1.60413 10.0833 1.60413C14.2599 1.60413 17.6458 4.98997 17.6458 9.16663C17.6458 13.3433 14.2599 16.7291 10.0833 16.7291C5.9066 16.7291 2.52075 13.3433 2.52075 9.16663Z" fill="#402E32"/>
<path d="M17.9028 16.0139C17.6343 15.7454 17.5708 15.9239 16.9999 16C16.7315 16.2685 16.662 16.7177 16.9305 16.9862L20.5971 20.6528C20.8656 20.9213 21.5062 21.0118 21.7746 20.7433C22.0431 20.4748 21.8378 19.949 21.5694 19.6805L17.9028 16.0139Z" fill="#402E32"/>
<path d="M18.1081 15.9239C17.8396 15.6554 17.2684 15.7315 16.9999 16C16.9999 16.5 16.8673 16.6277 17.1358 16.8962L20.8024 20.5628C21.0709 20.8313 21.5062 21.0118 21.7746 20.7433C22.0431 20.4748 22.0431 19.859 21.7746 19.5905L18.1081 15.9239Z" fill="#402E32"/>
<path fill-rule="evenodd" clip-rule="evenodd" d="M10.2333 1C5.6862 1 2 4.68618 2 9.23332C2 13.7805 5.6862 17.4666 10.2333 17.4666C14.7805 17.4666 18.4667 13.7805 18.4667 9.23332C18.4667 4.68618 14.7805 1 10.2333 1ZM3 9.23332C3 5.38574 6.38576 2.26666 10.2333 2.26666C14.0809 2.26666 17.2 5.38574 17.2 9.23332C17.2 13.0809 14.0809 16.2 10.2333 16.2C6.38576 16.2 3 13.0809 3 9.23332Z" fill="#402E32"/>
</svg>
